<?xml version="1.0" encoding="UTF-8"?>
<svg id="Layer_1" data-name="Layer 1" xmlns="http://www.w3.org/2000/svg" version="1.1" viewBox="0 0 135 30">
  <defs>
    <style>
      .cls-1 {
        fill: #fff;
        stroke-width: 0px;
      }
    </style>
  </defs>
  <path class="cls-1" d="M15.9,26.9H2.9v-1.3c.3,0,.7,0,1.3,0,.6,0,1-.1,1.2-.2.4-.2.7-.4.8-.7s.2-.6.2-1V6.9c0-.4,0-.7-.2-1-.1-.3-.4-.5-.8-.7-.3-.1-.7-.2-1.2-.3s-1-.2-1.3-.2v-1.3h13.1v1.3c-.3,0-.7,0-1.2.1-.5,0-.9.1-1.3.3-.4.1-.7.4-.9.7s-.2.7-.2,1v16.7c0,.4,0,.7.2,1,.1.3.4.5.9.7.2,0,.6.2,1.2.3.5,0,1,.2,1.4.2v1.3Z"/>
  <path class="cls-1" d="M39.9,26.9h-10v-1.2c.2,0,.5,0,.8,0s.5,0,.7-.2c.2-.1.4-.3.5-.5s.1-.6.1-1v-7.8c0-1.1-.2-2-.6-2.5-.4-.6-1-.9-1.8-.9s-.9,0-1.2.2c-.4.1-.8.3-1.1.6-.3.2-.6.4-.8.7-.2.2-.4.4-.5.6v8.9c0,.4,0,.7.2,1,.1.3.3.5.5.6.2.1.4.2.7.3.3,0,.5.1.8.2v1.2h-10.1v-1.2c.3,0,.6,0,.8,0,.3,0,.5,0,.7-.2.4-.1.6-.3.7-.6.1-.3.2-.6.2-1v-9.7c0-.3,0-.7-.3-1s-.4-.6-.7-.8c-.2-.1-.5-.2-.8-.3-.3,0-.6-.1-1-.2v-1.2l7.9-.4.2.2v2.4h0c.3-.3.7-.6,1.1-1,.4-.4.9-.7,1.2-.9.4-.3.9-.5,1.6-.7.7-.2,1.4-.3,2.1-.3,1.8,0,3.2.5,4.1,1.5.9,1,1.4,2.4,1.4,4.1v8.1c0,.4,0,.7.2,1,.1.2.3.4.7.6.2,0,.4.2.7.2.3,0,.6.1.9.2v1.2Z"/>
  <path class="cls-1" d="M62.9,26.5l-8.2.5-.2-.2v-1.5h-.1c-.5.6-1.3,1.1-2.2,1.5-.9.4-1.9.7-2.8.7-2.2,0-4.1-.8-5.5-2.5-1.4-1.7-2.2-3.8-2.2-6.4s.8-4.3,2.4-6c1.6-1.7,3.6-2.5,5.9-2.5s1.8.1,2.6.3c.8.2,1.4.4,1.9.7v-5.4c0-.4,0-.8-.2-1.2s-.4-.6-.7-.8c-.3-.2-.8-.4-1.3-.5-.5-.1-1-.2-1.6-.2v-1.2l9-.4.2.3v21.8c0,.4,0,.8.2,1.1s.4.5.7.7c.2.1.6.2,1,.3.4,0,.8,0,1.1.1v1.2ZM54.4,23.6v-9.4c0-.3-.2-.5-.3-.8-.1-.3-.3-.6-.6-.9-.2-.2-.5-.4-.9-.6-.4-.2-.8-.3-1.3-.3-1.1,0-2,.6-2.7,1.9-.7,1.3-1.1,3-1.1,5.3s0,1.7.2,2.4c.1.7.4,1.4.7,2,.3.6.7,1,1.2,1.4s1.1.5,1.8.5,1.2-.1,1.7-.4c.4-.3.9-.6,1.2-1Z"/>
  <path class="cls-1" d="M74.5,26.9h-10.5v-1.2c.3,0,.6,0,.8,0,.3,0,.5,0,.7-.2.4-.1.6-.3.7-.6s.2-.6.2-1v-9.7c0-.4,0-.7-.3-1s-.4-.5-.7-.7c-.2-.1-.5-.3-.9-.4-.4-.1-.8-.2-1.1-.2v-1.2l8.1-.4.2.2v13.2c0,.4,0,.7.2,1s.4.5.7.6c.2.1.5.2.7.3.3,0,.5.1.8.2v1.2ZM72,4.2c0,.8-.3,1.6-1,2.2s-1.4.9-2.3.9-1.7-.3-2.3-.9c-.6-.6-1-1.3-1-2.2s.3-1.6,1-2.2c.6-.6,1.4-.9,2.3-.9s1.7.3,2.3.9c.6.6,1,1.3,1,2.2Z"/>
  <path class="cls-1" d="M92.5,13.4c0,.8-.3,1.6-.8,2.2-.5.6-1.2,1-2.1,1s-1.5-.2-2.1-.6c-.6-.4-.8-1-.8-1.8s0-.7,0-.9c0-.2.1-.4.1-.6-.5,0-1,.2-1.6.5-.6.3-1.1.8-1.5,1.3v9.1c0,.4,0,.7.2,1s.3.5.6.6c.2.1.6.2,1.2.3.5,0,.9.1,1.2.1v1.2h-11.1v-1.2c.3,0,.6,0,.8,0,.3,0,.5,0,.7-.2.4-.1.6-.3.7-.6.1-.3.2-.6.2-1v-9.7c0-.4,0-.8-.3-1.1-.2-.3-.4-.6-.7-.8-.2-.1-.5-.2-.8-.3-.3,0-.6-.1-1-.2v-1.2l7.9-.4.2.2v2.4h0c.8-.9,1.6-1.6,2.4-2.1.9-.5,1.8-.8,2.7-.8s1.9.3,2.5,1c.6.6.9,1.5.9,2.5Z"/>
  <path class="cls-1" d="M112.7,26.5c-.5.2-1.1.4-1.7.6-.7.2-1.4.3-2.1.3-1.4,0-2.4-.2-3-.6-.6-.4-1.1-1-1.3-1.7h0c-.4.4-.7.7-1.1,1-.3.3-.7.5-1.1.7-.5.2-1,.4-1.5.5-.5.1-1.2.2-2,.2-1.3,0-2.4-.4-3.3-1.1-.9-.8-1.4-1.8-1.4-3s0-1.3.3-1.8c.2-.5.5-1,.8-1.3.3-.4.7-.6,1.2-.9.4-.2.9-.4,1.4-.6,1-.4,2.2-.7,3.6-1.1s2.4-.7,3.1-1.1v-1.6c0-.3,0-.6,0-1.1,0-.5-.1-.8-.3-1.1-.2-.4-.4-.7-.7-.9-.3-.2-.8-.4-1.3-.4s-.9,0-1.2.2c-.3.1-.6.3-.8.4,0,.2.1.6.3,1s.2.9.2,1.3,0,.4-.2.7c0,.3-.2.5-.4.7-.3.2-.5.4-.9.5-.3.1-.8.2-1.5.2-.9,0-1.6-.2-2.1-.7-.5-.4-.7-1-.7-1.8s.2-1.2.7-1.7c.5-.5,1.1-.9,1.8-1.2.7-.3,1.5-.6,2.4-.8s1.8-.3,2.5-.3,2.1,0,3,.2c.9.1,1.7.4,2.4.8.7.4,1.2.9,1.6,1.7.4.7.6,1.7.6,2.9s0,2.7,0,4.5c0,1.7,0,2.8,0,3.4s0,.9.2,1.2.4.5.7.6c.2,0,.5.1.9.2s.8,0,1.1,0v1.2ZM104.4,17.9c-.6.2-1.2.5-1.9.7-.6.3-1.1.6-1.5.9-.4.3-.7.7-1,1.2-.2.5-.4,1.1-.4,1.7s.2,1.5.6,1.9c.4.4.9.6,1.5.6s1.1-.1,1.5-.4c.4-.2.7-.6,1-.9v-5.6Z"/>
  <path class="cls-1" d="M121.9,24.1c0,.9-.3,1.6-1,2.3-.6.6-1.4,1-2.3,1s-1.7-.3-2.3-1c-.6-.6-1-1.4-1-2.3s.3-1.7,1-2.3c.6-.6,1.4-1,2.3-1s1.7.3,2.3,1c.6.7,1,1.4,1,2.3Z"/>
</svg>